<?xml version="1.0" encoding="UTF-8" standalone="no"?>
<svg
   xmlns:dc="http://purl.org/dc/elements/1.1/"
   xmlns:cc="http://creativecommons.org/ns#"
   xmlns:rdf="http://www.w3.org/1999/02/22-rdf-syntax-ns#"
   xmlns:svg="http://www.w3.org/2000/svg"
   xmlns="http://www.w3.org/2000/svg"
   xmlns:sodipodi="http://sodipodi.sourceforge.net/DTD/sodipodi-0.dtd"
   xmlns:inkscape="http://www.inkscape.org/namespaces/inkscape"
   data-name="Layer 2"
   viewBox="0 0 100 100"
   x="0px"
   y="0px"
   version="1.1"
   id="svg72"
   sodipodi:docname="noun_Telescope_1469837.svg"
   width="100"
   height="100"
   inkscape:version="0.92.2 5c3e80d, 2017-08-06">
  <metadata
     id="metadata78">
    <rdf:RDF>
      <cc:Work
         rdf:about="">
        <dc:format>image/svg+xml</dc:format>
        <dc:type
           rdf:resource="http://purl.org/dc/dcmitype/StillImage" />
        <dc:title>Artboard 44</dc:title>
      </cc:Work>
    </rdf:RDF>
  </metadata>
  <defs
     id="defs76" />
  <sodipodi:namedview
     pagecolor="#ffffff"
     bordercolor="#666666"
     borderopacity="1"
     objecttolerance="10"
     gridtolerance="10"
     guidetolerance="10"
     inkscape:pageopacity="0"
     inkscape:pageshadow="2"
     inkscape:window-width="2252"
     inkscape:window-height="1309"
     id="namedview74"
     showgrid="false"
     inkscape:zoom="6.8900485"
     inkscape:cx="53.961895"
     inkscape:cy="44.336745"
     inkscape:window-x="0"
     inkscape:window-y="0"
     inkscape:window-maximized="0"
     inkscape:current-layer="svg72" />
  <title
     id="title64">Artboard 44</title>
  <path
     d="M 82.036291,1.5867913 A 1.0838566,1.0838566 0 0 0 80.555516,1.1898722 L 71.168623,6.609155 a 1.0847346,1.0847346 0 0 0 -0.39693,1.4807758 L 71.58723,9.5024995 20.900522,38.767095 a 1.0847346,1.0847346 0 0 0 -0.396919,1.480776 l 2.978092,5.157976 -6.569429,3.792837 a 1.0847346,1.0847346 0 0 0 -0.396919,1.480776 l 0.541863,0.938522 -3.7585,2.170163 -1.625785,-2.820249 A 1.0839542,1.0839542 0 0 0 10.191618,50.570977 L 9.9748469,50.696271 8.4747893,48.09896 8.6256188,47.286067 a 1.0839542,1.0839542 0 0 0 -1.607793,-1.13625 l -4.6937171,2.709642 a 1.0841601,1.0841601 0 0 0 0.1794108,1.960252 l 0.7795531,0.276785 1.5012824,2.600096 -0.2178552,0.125955 a 1.0839976,1.0839976 0 0 0 -0.3963881,1.480244 l 4.3348955,7.51026 a 5.3753437,5.3753437 0 0 0 3.2933738,2.526004 5.4425211,5.4425211 0 0 0 1.405632,0.185762 5.3592484,5.3592484 0 0 0 2.699583,-0.731387 l 6.572735,-3.789531 0.542188,0.939119 a 1.084507,1.084507 0 0 0 1.480776,0.396919 l 6.569537,-3.793228 2.98299,5.166507 a 1.084507,1.084507 0 0 0 1.480776,0.396919 l 12.661223,-7.310212 v 2.805433 h -1.626272 a 1.0838566,1.0838566 0 0 0 -1.083857,1.083856 v 10.838567 a 1.0838566,1.0838566 0 0 0 1.083857,1.083856 h 6.07016 L 41.239244,97.049796 a 1.0841818,1.0841818 0 0 0 0.982245,1.542165 h 6.763515 a 1.0849947,1.0849947 0 0 0 0.982776,-0.626599 l 3.287554,-7.060947 v 6.603689 a 1.0838566,1.0838566 0 0 0 1.083857,1.083857 h 6.123682 a 1.0838566,1.0838566 0 0 0 1.083856,-1.083857 V 90.88781 l 3.299206,7.078083 a 1.0831738,1.0831738 0 0 0 0.982245,0.626068 h 6.762994 a 1.0841818,1.0841818 0 0 0 0.982245,-1.542165 L 62.16508,72.61169 h 6.079601 a 1.0838566,1.0838566 0 0 0 1.083857,-1.083857 V 60.689266 A 1.0838566,1.0838566 0 0 0 68.244681,59.60541 H 66.619384 V 46.161978 l 19.599651,-11.316255 0.810508,1.403844 a 1.084507,1.084507 0 0 0 1.480776,0.396919 l 9.386892,-5.419283 A 1.0847346,1.0847346 0 0 0 98.29413,29.746427 Z M 5.0358964,49.797244 l 1.4373782,-0.829822 1.6247011,2.813767 -1.436652,0.830495 z m 9.7816976,13.120085 a 3.2428991,3.2428991 0 0 1 -4.434393,-1.187051 l -3.7940296,-6.573027 0.2110919,-0.122053 0.00694,-0.0028 0.00379,-0.0034 3.2961597,-1.905485 0.01462,-0.0049 0.01171,-0.0103 0.203689,-0.11775 1.625785,2.82078 a 1.0861327,1.0861327 0 0 0 0.763674,0.52605 1.1033661,1.1033661 0 0 0 0.731918,-0.138658 l 4.682705,-2.70329 3.25131,5.631242 z m 9.53667,-2.997016 -4.87716,-8.446852 -1.95e-4,-6.61e-4 -4.66e-4,-5.31e-4 -0.541462,-0.937786 5.630776,-3.251039 5.419023,9.385776 z M 48.29384,96.424248 h -4.370902 l 9.332385,-20.008417 v 9.352599 z m 7.129218,0 V 72.61169 h 3.955969 v 23.812558 z m 11.095766,0 -4.972084,-10.666635 v -9.345694 l 9.342443,20.012329 z m 0.642001,-25.980272 h -19.50942 v -8.670853 h 19.50942 z M 50.361578,59.60541 V 38.470205 a 7.0450682,7.0450682 0 0 1 14.090136,0 V 59.60541 Z m 16.25785,-15.946859 v -5.188346 a 9.2127815,9.2127815 0 0 0 -18.425563,0 V 54.296463 L 35.387567,61.690555 22.923216,40.102862 72.671152,11.380064 85.135048,32.968093 Z M 88.365364,34.22683 73.191371,7.9448891 80.700568,3.6094625 95.874561,29.891404 Z"
     id="path66"
     inkscape:connector-curvature="0"
     style="stroke-width:1.0838567" />
</svg>
